<?xml version="1.0" encoding="iso-8859-1"?>
<!-- Generator: Adobe Illustrator 15.0.0, SVG Export Plug-In . SVG Version: 6.00 Build 0)  -->
<!DOCTYPE svg PUBLIC "-//W3C//DTD SVG 1.1//EN" "http://www.w3.org/Graphics/SVG/1.1/DTD/svg11.dtd">
<svg version="1.1" id="Layer_1" xmlns="http://www.w3.org/2000/svg" xmlns:xlink="http://www.w3.org/1999/xlink" x="0px" y="0px"
	 width="612px" height="792px" viewBox="0 0 612 792" style="enable-background:new 0 0 612 792;" xml:space="preserve">
<g>
	<path style="fill:#231F20;" d="M270.698,293.764c0-3.819-3.122-6.924-6.962-6.924c-3.826,0-6.931,3.105-6.931,6.924v25.578h13.894
		V293.764z"/>
	<path style="fill:#231F20;" d="M256.805,495.658c0,3.842,3.105,6.948,6.931,6.948c3.84,0,6.962-3.105,6.962-6.948v-25.562h-13.894
		V495.658z"/>
	<path style="fill:#231F20;" d="M312.638,293.764c0-3.819-3.122-6.924-6.948-6.924c-3.826,0-6.932,3.105-6.932,6.924v25.578h13.879
		V293.764z"/>
	<path style="fill:#231F20;" d="M298.758,495.658c0,3.842,3.105,6.948,6.932,6.948c3.826,0,6.948-3.105,6.948-6.948v-25.562h-13.879
		V495.658z"/>
	<path style="fill:#231F20;" d="M354.577,293.764c0-3.819-3.108-6.924-6.934-6.924c-3.826,0-6.932,3.105-6.932,6.924v25.578h13.865
		V293.764z"/>
	<path style="fill:#231F20;" d="M340.712,495.658c0,3.842,3.105,6.948,6.932,6.948c3.826,0,6.934-3.105,6.934-6.948v-25.562h-13.865
		V495.658z"/>
	<path style="fill:#231F20;" d="M204.743,429.733c-3.81,0-6.932,3.107-6.932,6.934c0,3.831,3.122,6.938,6.932,6.938h25.557v-13.872
		H204.743z"/>
	<path style="fill:#231F20;" d="M406.623,443.605c3.84,0,6.948-3.108,6.948-6.938c0-3.826-3.108-6.934-6.948-6.934h-25.526v13.872
		H406.623z"/>
	<path style="fill:#231F20;" d="M204.743,387.778c-3.81,0-6.932,3.115-6.932,6.934c0,3.84,3.122,6.953,6.932,6.953h25.557v-13.886
		H204.743z"/>
	<path style="fill:#231F20;" d="M406.623,401.665c3.84,0,6.948-3.113,6.948-6.953c0-3.819-3.108-6.934-6.948-6.934h-25.526v13.886
		H406.623z"/>
	<path style="fill:#231F20;" d="M204.743,345.833c-3.81,0-6.932,3.107-6.932,6.934c0,3.831,3.122,6.948,6.932,6.948h25.557v-13.881
		H204.743z"/>
	<path style="fill:#231F20;" d="M406.623,359.714c3.84,0,6.948-3.117,6.948-6.948c0-3.826-3.108-6.934-6.948-6.934h-25.526v13.881
		H406.623z"/>
	<path style="fill:#231F20;" d="M344.949,448.531c8.049,0,14.579-6.529,14.579-14.58V355.48c0-8.051-6.53-14.58-14.579-14.58
		h-78.537c-8.017,0-14.546,6.529-14.546,14.58v78.471c0,8.051,6.529,14.58,14.546,14.58H344.949z"/>
</g>
</svg>
